#N canvas 841 210 446 509 10;
#X obj 139 43 inlet;
#X obj 167 416 outlet~;
#X obj 235 416 outlet~;
#X obj 165 118 pipe_reader;
#X msg 277 64 close;
#X obj 165 145 route frequency volume tempo;
#X floatatom 160 180 5 0 0 0 - - -;
#X floatatom 218 182 5 0 0 0 - - -;
#X floatatom 277 183 5 0 0 0 - - -;
#X obj 339 180 print;
#X obj 135 262 osc~;
#X obj 229 284 osc~;
#X obj 204 246 +~;
#X obj 234 337 *~;
#X obj 176 304 *~;
#X obj 248 228 >= 0;
#X obj 167 385 *~;
#X obj 235 387 *~;
#X obj 314 215 > 0;
#X obj 191 67 metro 1;
#X obj 191 46 loadbang;
#X connect 0 0 3 0;
#X connect 3 0 5 0;
#X connect 4 0 3 0;
#X connect 5 0 6 0;
#X connect 5 1 7 0;
#X connect 5 2 8 0;
#X connect 5 3 9 0;
#X connect 6 0 10 0;
#X connect 6 0 12 0;
#X connect 7 0 16 1;
#X connect 7 0 17 0;
#X connect 8 0 12 1;
#X connect 8 0 15 0;
#X connect 8 0 18 0;
#X connect 10 0 14 0;
#X connect 11 0 13 0;
#X connect 12 0 11 0;
#X connect 13 0 17 1;
#X connect 14 0 16 0;
#X connect 15 0 14 1;
#X connect 16 0 1 0;
#X connect 17 0 2 0;
#X connect 18 0 13 1;
#X connect 19 0 3 0;
#X connect 20 0 19 0;
