#N canvas 721 313 450 406 10;
#X msg 115 89 test 1 2 3;
#X obj 170 196 pipe_reader;
#X msg 72 66 open foo.txt;
#X msg 266 56 close;
#X obj 172 244 route frequency volume tempo;
#X floatatom 168 289 5 0 0 0 - - -;
#X floatatom 226 291 5 0 0 0 - - -;
#X floatatom 285 292 5 0 0 0 - - -;
#X obj 347 289 print;
#X obj 201 34 metro 1;
#X obj 200 10 loadbang;
#X connect 0 0 1 0;
#X connect 1 0 4 0;
#X connect 2 0 1 0;
#X connect 3 0 1 0;
#X connect 4 0 5 0;
#X connect 4 1 6 0;
#X connect 4 2 7 0;
#X connect 4 3 8 0;
#X connect 9 0 1 0;
#X connect 10 0 9 0;
