#N canvas 672 222 450 300 10;
#X obj 218 143 bng 15 250 50 0 empty empty empty 17 7 0 10 -262144
-1 -1;
#X msg 115 89 test 1 2 3;
#X obj 170 196 pipe_reader;
#X msg 72 66 open foo.txt;
#X msg 266 56 close;
#X connect 0 0 2 0;
#X connect 1 0 2 0;
#X connect 3 0 2 0;
#X connect 4 0 2 0;
