#N canvas 724 313 450 406 10;
#X obj 170 196 pipe_reader;
#X msg 248 141 close;
#X obj 172 244 route frequency volume tempo;
#X floatatom 168 289 5 0 0 0 - - -;
#X floatatom 226 291 5 0 0 0 - - -;
#X floatatom 285 292 5 0 0 0 - - -;
#X obj 347 289 print;
#X obj 181 100 metro 1;
#X obj 116 5 loadbang;
#X msg 78 99 open fifo.pipe;
#X connect 0 0 2 0;
#X connect 1 0 0 0;
#X connect 2 0 3 0;
#X connect 2 1 4 0;
#X connect 2 2 5 0;
#X connect 2 3 6 0;
#X connect 7 0 0 0;
#X connect 8 0 7 0;
#X connect 8 0 9 0;
#X connect 9 0 0 0;
