#N canvas 125 121 654 248 10;
#X obj 86 23 loadbang;
#X msg 86 45 open fifo.pipe;
#X obj 203 151 dac~;
#X obj 212 22 loadbang;
#X msg 212 44 open fifo2.pipe;
#X obj 86 70 alvinstrument;
#X obj 212 69 alvinstrument;
#X connect 0 0 1 0;
#X connect 1 0 5 0;
#X connect 3 0 4 0;
#X connect 4 0 6 0;
#X connect 5 0 2 0;
#X connect 5 1 2 1;
#X connect 6 0 2 0;
#X connect 6 1 2 1;
