#N canvas 712 139 450 406 10;
#X obj 218 143 bng 15 250 50 0 empty empty empty 17 7 0 10 -262144
-1 -1;
#X msg 115 89 test 1 2 3;
#X obj 170 196 pipe_reader;
#X msg 72 66 open foo.txt;
#X msg 266 56 close;
#X obj 172 244 route frequency volume tempo;
#X floatatom 168 289 5 0 0 0 - - -;
#X floatatom 226 291 5 0 0 0 - - -;
#X floatatom 285 292 5 0 0 0 - - -;
#X connect 0 0 2 0;
#X connect 1 0 2 0;
#X connect 2 0 5 0;
#X connect 3 0 2 0;
#X connect 4 0 2 0;
#X connect 5 0 6 0;
#X connect 5 1 7 0;
#X connect 5 2 8 0;
